<svg width="18" height="42" viewBox="0 0 18 42" fill="none" xmlns="http://www.w3.org/2000/svg">
<path d="M15.6193 23.5811H9.72615V17.0414C14.0382 16.564 17.3442 12.9362 17.3442 8.54456C17.3442 3.8188 13.5112 0 8.76791 0C4.02461 0 0.191645 3.8188 0.191645 8.54456C0.191645 12.9362 3.54549 16.564 7.80967 17.0414V23.5811H1.91648H0V25.4905V39.1427V41.0521H1.91648H15.6193H17.5358V39.1427V25.4905V23.5811H15.6193ZM2.10813 8.49683C2.10813 4.82124 5.07868 1.86167 8.76791 1.86167C12.4571 1.86167 15.4277 4.82124 15.4277 8.49683C15.4277 11.8383 12.9363 14.6069 9.72615 15.0843V8.44909H7.80967V15.0843C4.59956 14.6069 2.10813 11.8383 2.10813 8.49683ZM15.6193 39.1427H1.91648V25.4905H7.80967V31.5051H9.72615V25.4905H15.6193V39.1427Z" fill="#9A9ABB"/>
</svg>
