<svg width="42" height="40" viewBox="0 0 42 40" fill="none" xmlns="http://www.w3.org/2000/svg">
<path d="M39.7762 22.9454H34.9585V6.70784H16.9505C16.2021 2.91444 12.7876 0 8.71827 0C4.08764 0 0.345703 3.70088 0.345703 8.28072C0.345703 12.6755 3.80699 16.2376 8.15697 16.5614V33.2154H24.5279V37.9803V39.8307H26.3989H39.7762H41.6472V37.9803V24.7496V22.8992H39.7762V22.9454ZM2.21666 8.32698C2.21666 4.76488 5.11667 1.8967 8.71827 1.8967C12.3199 1.8967 15.2198 4.76488 15.2198 8.32698C15.2198 11.8891 12.3199 14.7573 8.71827 14.7573C5.11667 14.7573 2.21666 11.8891 2.21666 8.32698ZM24.5279 22.9454V24.7959V31.4112H9.98117V16.5152C13.9102 15.9138 16.9505 12.583 17.0908 8.55828H33.0875V22.9454H26.3989H24.5279ZM39.7762 38.0265H26.3989V24.7959H39.7762V38.0265Z" fill="#9A9ABB"/>
</svg>
