<svg width="93" height="103" viewBox="0 0 93 103" fill="none" xmlns="http://www.w3.org/2000/svg">
<path d="M92.5114 44.1487C92.5114 19.8018 73.9208 0.00012207 51.0604 0.00012207C28.2 0.00012207 9.61921 19.8018 9.61921 44.1487C9.61921 47.9529 10.1002 51.7176 10.9934 55.3539L0.687069 64.9582C0.677254 64.9681 0.66744 64.978 0.657624 64.9879C0.598731 65.0472 0.54965 65.1065 0.500572 65.1756C0.46131 65.225 0.422052 65.2745 0.38279 65.314C0.343528 65.3634 0.314075 65.4326 0.284629 65.4918C0.245367 65.561 0.206119 65.6203 0.176672 65.6993C0.166857 65.7092 0.157043 65.729 0.147227 65.7389C0.127596 65.7883 0.117772 65.8278 0.107956 65.8772C0.0785099 65.9562 0.0588812 66.0254 0.0490657 66.0946C0.0392502 66.1637 0.0294358 66.2329 0.0196203 66.3021C0.00980475 66.3713 3.47986e-10 66.4404 3.47986e-10 66.5096C3.47986e-10 66.5787 -2.03683e-05 66.6479 0.00979516 66.7171C0.00979516 66.7863 0.0196095 66.8554 0.0392406 66.9245C0.0490561 66.9937 0.0687051 67.053 0.0883362 67.1222C0.107967 67.1914 0.127576 67.2605 0.157022 67.3198C0.186469 67.3791 0.215942 67.4384 0.245388 67.5076C0.274835 67.5668 0.304258 67.6261 0.34352 67.6953C0.382782 67.7645 0.431874 67.8238 0.480952 67.883C0.510398 67.9226 0.530016 67.9621 0.559463 67.9917C0.569278 68.0016 0.579093 68.0115 0.588908 68.0214C0.647801 68.0906 0.716532 68.14 0.795056 68.2091C0.834318 68.2388 0.873585 68.2783 0.922663 68.3178C0.981556 68.3573 1.05025 68.3969 1.11896 68.4265C1.17785 68.4561 1.24656 68.4957 1.30545 68.5253C1.31527 68.5253 1.32508 68.5352 1.3349 68.5352L16.8434 74.7207V88.6135C16.8434 89.7893 17.7857 90.7379 18.9538 90.7379H31.2232V100.095C31.2232 101.271 32.1655 102.22 33.3335 102.22H76.9832C78.1513 102.22 79.0936 101.271 79.0936 100.095V76.6574C87.6331 68.2783 92.5114 56.5 92.5114 44.1487ZM51.0702 4.25886C71.5945 4.25886 88.2907 22.1535 88.2907 44.1487C88.2907 55.6601 83.648 66.6084 75.56 74.1872C75.5501 74.1971 75.5403 74.2069 75.5403 74.2168C75.4814 74.2761 75.4324 74.3452 75.3735 74.4045C75.344 74.444 75.2949 74.4836 75.2655 74.533C75.2262 74.5923 75.187 74.6614 75.1477 74.7306C75.1183 74.78 75.0888 74.8393 75.0594 74.8887C75.0299 74.9578 75.0103 75.0172 74.9907 75.0863C74.971 75.1555 74.9416 75.2148 74.9318 75.284C74.922 75.3432 74.9122 75.4025 74.9023 75.4717C74.8925 75.5507 74.8827 75.6298 74.8827 75.7088C74.8827 75.7187 74.8827 75.7385 74.8827 75.7484V97.9511H35.4635V88.5938C35.4635 87.4179 34.5212 86.4693 33.3532 86.4693H21.0837V73.2583C21.0837 73.2485 21.0837 73.2484 21.0837 73.2386C21.0837 73.1496 21.0641 73.0607 21.0543 72.9718C21.0445 72.9224 21.0445 72.8631 21.0347 72.8137C21.0151 72.7445 20.9954 72.6852 20.9758 72.6161C20.9562 72.5469 20.9365 72.4777 20.9071 72.4184C20.8874 72.369 20.858 72.3196 20.8286 72.2702C20.7893 72.2011 20.7598 72.1319 20.7206 72.0627C20.6813 72.0034 20.6323 71.954 20.5832 71.8948C20.5439 71.8453 20.5046 71.7959 20.4654 71.7564C20.4163 71.707 20.3574 71.6773 20.3083 71.6279C20.2593 71.5785 20.2004 71.5291 20.1415 71.4995C20.1022 71.4698 20.0531 71.4501 20.004 71.4205C19.9255 71.3711 19.847 71.3315 19.7685 71.292C19.7587 71.292 19.7587 71.2821 19.7488 71.2821L6.02672 65.808L14.7724 57.6562C14.8018 57.6265 14.8214 57.5969 14.8509 57.5771C14.9 57.5178 14.9589 57.4684 15.0079 57.3992C15.0472 57.3498 15.0865 57.2905 15.1159 57.2411C15.1552 57.1818 15.1846 57.1225 15.2239 57.0534C15.2533 56.9941 15.2828 56.9348 15.3024 56.8656C15.3319 56.8063 15.3515 56.7372 15.3711 56.6681C15.3907 56.5989 15.4006 56.5396 15.4202 56.4704C15.43 56.4013 15.4398 56.3321 15.4496 56.2629C15.4496 56.1937 15.4595 56.1344 15.4595 56.0554C15.4595 55.9862 15.4595 55.9171 15.4496 55.8479C15.4398 55.7689 15.43 55.6997 15.4104 55.6206C15.4006 55.5811 15.4006 55.5416 15.3907 55.5119C14.3699 51.8461 13.8595 48.0221 13.8595 44.1586C13.8497 22.1535 30.5459 4.25886 51.0702 4.25886Z" fill="white"/>
<path d="M40.0182 64.3986C42.0704 65.4208 47.2009 67.4652 47.2009 67.4652V16.3554H42.0704C38.992 16.3554 37.9659 17.3776 36.9399 20.4442C35.914 23.5108 37.9659 25.5552 34.8877 27.5996C31.8095 29.644 30.7832 28.6218 28.7311 30.6662C26.6791 32.7105 24.6267 36.7993 25.6528 39.8659C26.6789 42.9325 30.7833 44.9769 30.7833 47.0213C30.7833 49.0657 29.7572 53.1545 32.8355 54.1767C35.9138 55.1989 35.914 56.2211 35.914 58.2655C35.914 60.3098 37.966 63.3764 40.0182 64.3986Z" stroke="white" stroke-width="2"/>
<path d="M54.3832 68.4871H48.2266V12.2664H54.3832L55.4093 20.4439L63.6181 26.5771L71.8269 21.4661L76.9574 28.6215L69.7747 35.7769V45.9988L76.9574 52.132L71.8269 60.3096L63.6181 55.1986L55.4093 60.3096L54.3832 68.4871Z" stroke="white" stroke-width="2"/>
<path d="M52.3307 49.0655H47.2002V32.7104H52.3307L57.4612 36.7992V44.9767L52.3307 49.0655Z" stroke="white" stroke-width="2"/>
</svg>
