<svg width="99" height="100" viewBox="0 0 99 100" fill="none" xmlns="http://www.w3.org/2000/svg">
<path d="M14.6236 45.2333L14.467 45.0381L13.958 44.4918H18.0493V32.7834H6.3039V44.4918H10.4148L9.90583 45.0381L0.626953 55.2829L5.38384 77.8019H8.45723L3.85694 56.1415L10.7867 48.5311V63.6153H13.7231V48.5311L18.1668 53.4096L20.6333 56.1025L20.5158 56.7074L19.7524 60.2589L16.033 77.8214H19.0477L22.1602 62.7177L22.8649 59.4003L23.7263 55.2829L14.6236 45.2333ZM8.26147 42.5404V34.7348H16.0917V42.5404H8.26147Z" fill="white"/>
<path d="M70.668 32.7834V44.4918H82.4134V32.7834H70.668ZM80.4558 42.5404H72.6255V34.7348H80.4558V42.5404Z" fill="white"/>
<path d="M77.6567 10.5765C78.5303 10.5768 79.3869 10.3363 80.1319 9.88168C80.8769 9.42701 81.4813 8.77584 81.8783 8.00016C82.2753 7.22448 82.4494 6.35449 82.3813 5.48635C82.3133 4.61821 82.0058 3.78572 81.4928 3.08091C80.9798 2.37609 80.2813 1.8264 79.4744 1.49258C78.6676 1.15876 77.7839 1.05382 76.921 1.18936C76.0581 1.32489 75.2496 1.69563 74.5849 2.26058C73.9202 2.82553 73.425 3.56271 73.1543 4.39062H50.2312V0H38.4858V4.39062H15.5627C15.2132 3.32194 14.4928 2.41256 13.531 1.82594C12.5691 1.23932 11.4289 1.01393 10.3153 1.19029C9.20169 1.36666 8.1877 1.9332 7.45559 2.78809C6.72349 3.64297 6.32129 4.73013 6.32129 5.85416C6.32129 6.97818 6.72349 8.06535 7.45559 8.92023C8.1877 9.77512 9.20169 10.3417 10.3153 10.518C11.4289 10.6944 12.5691 10.469 13.531 9.88238C14.4928 9.29576 15.2132 8.38638 15.5627 7.3177H28.6784C23.906 9.84 19.8134 13.4711 16.7467 17.9037C13.68 22.3364 11.7295 27.4402 11.0603 32.7833H13.9379C14.7961 26.7866 17.4162 21.1774 21.4677 16.6628C25.5193 12.1483 30.821 8.93056 36.7044 7.41527H38.4858V11.7083H50.2312V7.3177H52.0126C57.9098 8.83955 63.2212 12.0719 67.274 16.6052C71.3269 21.1386 73.9389 26.769 74.7791 32.7833H77.735C77.0509 27.4575 75.0935 22.3734 72.0276 17.9588C68.9616 13.5442 64.8768 9.92829 60.1169 7.41527H73.2326C73.5546 8.33166 74.1521 9.12685 74.9437 9.69253C75.7354 10.2582 76.6827 10.5669 77.6567 10.5765ZM77.6567 3.08319C78.394 3.08319 79.101 3.37513 79.6223 3.89479C80.1436 4.41445 80.4365 5.11925 80.4365 5.85416C80.4365 6.58906 80.1436 7.29387 79.6223 7.81353C79.101 8.33319 78.394 8.62513 77.6567 8.62513C76.9195 8.62513 76.2125 8.33319 75.6912 7.81353C75.1699 7.29387 74.877 6.58906 74.877 5.85416C74.877 5.11925 75.1699 4.41445 75.6912 3.89479C76.2125 3.37513 76.9195 3.08319 77.6567 3.08319ZM11.0994 8.62513C10.5496 8.62513 10.0122 8.46261 9.55507 8.15813C9.09794 7.85366 8.74166 7.42089 8.53126 6.91456C8.32087 6.40823 8.26582 5.85109 8.37308 5.31357C8.48034 4.77606 8.74508 4.28232 9.13384 3.89479C9.52259 3.50726 10.0179 3.24335 10.5571 3.13643C11.0963 3.02951 11.6552 3.08439 12.1632 3.29412C12.6711 3.50385 13.1052 3.85901 13.4107 4.31469C13.7161 4.77037 13.8792 5.30611 13.8792 5.85416C13.8792 6.22135 13.806 6.5849 13.6639 6.92366C13.5217 7.26241 13.3135 7.56963 13.0512 7.82746C12.7889 8.08528 12.4778 8.28857 12.1361 8.42551C11.7943 8.56244 11.4286 8.6303 11.0603 8.62513H11.0994ZM48.2932 9.75693H40.4629V1.95139H48.2932V9.75693Z" fill="white"/>
<path d="M24.3326 99.189L19.4191 87.0319H23.6278V77.8018H0.7243V87.0319H4.9918L0 99.15L24.3326 99.189ZM3.66065 84.1438V80.7289H20.6915V84.1438H3.66065ZM8.16306 87.0709H16.287L20.0063 96.2619H4.3458L8.16306 87.0709Z" fill="white"/>
<path d="M52.3453 23.5142L44.3584 15.2988L36.8609 22.7921L32.75 31.6905L38.4465 43.1646H38.7793V95.9691L44.3584 99.8719L49.9375 95.9691V43.1646H50.2702L55.9668 31.6905L52.3453 23.5142ZM39.1317 24.5874L44.3584 19.3577L49.7809 24.8411L51.1512 27.9828L48.4889 29.9342L44.4171 23.6703L40.0126 29.8757L37.7026 27.7292L39.1317 24.5874ZM46.9619 94.3495L44.3192 96.3009L41.6765 94.3495V43.1646H46.9619V94.3495ZM48.4301 40.1985H40.2866L35.9996 31.6124L36.4302 30.6562L40.4824 34.3444L44.3975 28.9585L47.745 34.3444L52.3648 30.8709L52.7172 31.6514L48.4301 40.1985Z" fill="white"/>
<path d="M77.0111 59.4198V62.3469H63.4451V75.7724H60.5088V59.4198H77.0111Z" fill="white"/>
<path d="M85.3699 58.3268L59.2363 84.3974L61.3114 86.4658L66.9296 80.8654H83.0599V64.7859L87.4449 60.3953L85.3699 58.3268ZM80.1236 77.9383H69.8659L80.1236 67.713V77.9383Z" fill="white"/>
<path d="M98.035 60.8834H95.0986V64.6691H98.035V60.8834Z" fill="white"/>
<path d="M98.035 66.6984H95.0986V70.4646H98.035V66.6984Z" fill="white"/>
<path d="M98.035 72.4745H95.0986V76.2407H98.035V72.4745Z" fill="white"/>
<path d="M92.6522 66.6984H89.7158V70.4646H92.6522V66.6984Z" fill="white"/>
<path d="M92.6522 72.4745H89.7158V76.2407H92.6522V72.4745Z" fill="white"/>
<path d="M92.6522 78.2701H89.7158V82.0558H92.6522V78.2701Z" fill="white"/>
</svg>
