<svg width="105" height="103" viewBox="0 0 105 103" fill="none" xmlns="http://www.w3.org/2000/svg">
<path d="M67.4956 2.91449H1.8252V57.126H49.0258" stroke="white" stroke-width="3"/>
<path d="M89.7972 23.2058H87.9208C92.3474 19.5612 93.7573 13.3477 91.3315 8.13679C88.9161 2.9154 83.2869 0.022756 77.6681 1.08792C72.4329 2.00688 68.3899 6.2362 67.6539 11.5307C66.9489 15.948 68.6491 20.4071 72.0909 23.2267H71.6762C66.5861 23.2267 61.8796 25.9627 59.3294 30.3904L56.4992 35.3298L49.3981 30.996C45.8215 28.8866 41.2291 30.0248 39.0313 33.5649C37.9532 35.3088 37.6214 37.4184 38.0983 39.413C38.5752 41.4075 39.8295 43.1305 41.5815 44.1852L54.3223 52.0173C58.0335 54.2207 62.7815 53.3958 65.5494 50.075V62.8256C65.5494 64.2667 66.7105 65.4363 68.1411 65.4363C69.5717 65.4363 70.7328 64.2667 70.7328 62.8256V42.5353C70.7328 41.418 70.0279 40.4259 68.9808 40.0604C67.9338 39.7053 66.7727 40.0395 66.0988 40.9271L61.6515 46.6602C60.5423 48.0908 58.5415 48.4668 56.9865 47.5478L44.2561 39.6636C43.0951 38.9743 42.7012 37.46 43.3854 36.2905C44.0696 35.1209 45.5727 34.7241 46.7338 35.4133L56.0639 41.1568C56.6548 41.5223 57.3804 41.6372 58.0543 41.4597C58.7281 41.2822 59.3086 40.8435 59.6611 40.2274L63.8078 32.9802C65.425 30.1606 68.4106 28.4271 71.645 28.4167H73.3659C75.4808 28.4167 77.326 27.0173 77.9273 24.981C78.5285 22.9446 77.72 20.7516 75.9576 19.6029C73.5422 18.0261 72.2774 15.1543 72.7439 12.293C73.1793 9.21237 75.5222 6.75839 78.5701 6.22581C82.0015 5.55747 85.4224 7.42674 86.739 10.6849C88.0556 13.943 86.9049 17.6919 83.9815 19.6238C82.2191 20.783 81.4312 22.976 82.0325 25.0019C82.6338 27.0382 84.4895 28.4271 86.5939 28.4271H89.7765C94.991 28.4271 99.2102 32.6878 99.2206 37.9405V57.9906C99.2206 59.3168 98.1528 60.3924 96.8362 60.3924C95.5197 60.3924 94.4518 59.3168 94.4518 57.9906V42.3264C94.4518 40.8853 93.2908 39.7157 91.8602 39.7157C90.4296 39.7157 89.2685 40.8853 89.2685 42.3264V57.9906C89.2685 62.199 92.6585 65.6138 96.8362 65.6138C101.014 65.6138 104.404 62.199 104.404 57.9906V37.93C104.394 29.816 97.8625 23.2162 89.7972 23.2058Z" fill="white"/>
<path d="M4.38581 102.884C5.07001 102.884 5.73344 102.612 6.22068 102.121C6.70791 101.631 6.97749 100.962 6.97749 100.273V97.3701C6.97749 93.7151 9.92162 90.7493 13.5603 90.7388C15.6855 90.7388 17.5619 89.3291 18.1735 87.2719C18.7852 85.2147 17.9973 83.0008 16.2246 81.8208C14.3897 80.5781 13.3012 78.5104 13.2908 76.2965C13.3634 72.7147 16.1831 69.8116 19.7286 69.6341C22.6831 69.5401 25.3473 71.4303 26.2492 74.2603C27.1615 77.1007 26.0833 80.1916 23.6368 81.8625C21.8744 83.053 21.0866 85.2669 21.7086 87.3137C22.3202 89.3605 24.1862 90.7597 26.3114 90.7702C29.9501 90.7806 32.8943 93.7463 32.8943 97.4013V100.304C32.8943 101.746 34.0554 102.915 35.486 102.915C36.9166 102.915 38.0777 101.746 38.0777 100.304V97.3701C38.0777 93.7151 41.0218 90.7493 44.6605 90.7388C46.7857 90.7388 48.6621 89.3291 49.2737 87.2719C49.8854 85.2147 49.0975 83.0008 47.3248 81.8208C45.5002 80.5781 44.4013 78.5104 44.4013 76.2965C44.4739 72.7147 47.2937 69.8116 50.8391 69.6341C53.804 69.5401 56.4579 71.4303 57.3701 74.2603C58.2824 77.1007 57.2042 80.1916 54.7473 81.8625C52.985 83.053 52.1971 85.2669 52.8191 87.3137C53.4308 89.3605 55.3071 90.7597 57.4323 90.7702C61.0607 90.7806 64.0048 93.7463 64.0152 97.4013V100.304C64.0152 101.746 65.1762 102.915 66.6069 102.915C68.0375 102.915 69.1985 101.746 69.1985 100.304V97.3701C69.1985 93.7151 72.1427 90.7493 75.7814 90.7388C77.9066 90.7388 79.783 89.3291 80.3946 87.2719C81.0062 85.2147 80.2183 83.0008 78.4456 81.8208C76.6211 80.5886 75.5223 78.5104 75.5119 76.2965C75.5845 72.7147 78.4042 69.8116 81.9496 69.6341C84.9145 69.5401 87.5684 71.4303 88.4807 74.2603C89.393 77.1007 88.3148 80.1916 85.8579 81.8625C84.0955 83.053 83.3077 85.2669 83.9297 87.3137C84.5413 89.3605 86.4177 90.7597 88.5429 90.7702C92.1712 90.7806 95.1154 93.7463 95.1257 97.4013V100.304C95.1257 101.746 96.2868 102.915 97.7174 102.915C99.148 102.915 100.309 101.746 100.309 100.304V97.3701C100.299 91.2297 95.6441 86.1023 89.5692 85.5593C93.4878 82.3951 94.991 77.0797 93.3323 72.3178C91.6633 67.5455 87.1952 64.3501 82.1777 64.3501C77.1602 64.3501 72.6818 67.535 71.0127 72.3178C69.3437 77.0901 70.8572 82.3951 74.7758 85.5593C71.5725 85.8412 68.6284 87.4389 66.6172 89.9661C64.6165 87.4389 61.6723 85.8412 58.469 85.5593C62.3773 82.3951 63.8804 77.0901 62.2114 72.3282C60.5423 67.5664 56.0743 64.3813 51.0671 64.3813C46.06 64.3813 41.5816 67.5664 39.9229 72.3282C38.2539 77.0901 39.757 82.3951 43.6653 85.5593C40.462 85.8412 37.5178 87.4389 35.5171 89.9661C33.5163 87.4389 30.5721 85.8412 27.3688 85.5593C31.2771 82.3951 32.7802 77.0901 31.1112 72.3282C29.4422 67.5664 24.9741 64.3813 19.967 64.3813C14.9598 64.3813 10.4814 67.5664 8.82274 72.3282C7.15369 77.0901 8.65685 82.3951 12.5651 85.5593C6.49021 86.1023 1.83556 91.2297 1.8252 97.3701V100.273C1.8252 100.962 2.09471 101.631 2.58195 102.121C3.03808 102.612 3.69124 102.884 4.38581 102.884Z" fill="white"/>
</svg>
