<svg width="117" height="86" viewBox="0 0 117 86" fill="none" xmlns="http://www.w3.org/2000/svg">
<path d="M58.9254 61.3452C51.8704 61.3452 45.3321 57.2113 42.25 50.8087L45.252 49.347C47.7729 54.5929 53.1354 57.9825 58.9254 57.9825C64.7066 57.9825 70.0691 54.5929 72.5989 49.347L75.6009 50.8087C72.5188 57.2113 65.9715 61.3452 58.9254 61.3452Z" fill="white"/>
<path d="M63.3698 85.4225H54.462L52.6448 76.2759C50.9702 75.953 49.3133 75.5047 47.6921 74.9397L41.5724 81.9432L33.8493 77.4685L36.8156 68.6178C35.524 67.4969 34.3125 66.2773 33.1902 64.9681L24.407 67.9452L19.9531 60.1796L26.9101 54.028C26.5182 52.8891 26.1708 51.6875 25.8857 50.468L29.1371 49.7057C29.4756 51.1764 29.9121 52.5932 30.4287 53.9204L30.8563 55.0144L24.22 60.888L25.9392 63.892L34.3214 61.0494L35.0519 61.9641C36.4593 63.7306 38.0627 65.3447 39.8087 66.7526L40.7172 67.4879L37.8935 75.9351L40.8865 77.6658L46.73 70.9852L47.8168 71.4156C49.9279 72.2495 52.1104 72.8324 54.3195 73.1732L55.4775 73.3525L57.2145 82.0867H60.6619L62.3989 73.3525L63.5569 73.1732C65.766 72.8324 67.9484 72.2495 70.0596 71.4156L71.1463 70.9852L76.9899 77.6658L79.9829 75.9351L77.1591 67.4879L78.0677 66.7526C79.8137 65.3447 81.4171 63.7306 82.8245 61.9641L83.555 61.0494L91.9372 63.892L93.6564 60.888L87.0201 55.0144L87.4477 53.9204C87.9643 52.5932 88.3919 51.1764 88.7393 49.7057L91.9907 50.4769C91.7056 51.6965 91.3671 52.8981 90.9662 54.037L97.9232 60.1885L93.4693 67.9542L84.6862 64.9771C83.5728 66.2863 82.3613 67.5058 81.0608 68.6268L84.0271 77.4775L76.304 81.9522L70.1843 74.9487C68.5631 75.5226 66.9062 75.971 65.2316 76.2848L63.3698 85.4225Z" fill="white"/>
<path d="M88.7128 35.7078C88.3743 34.2371 87.9378 32.8203 87.4212 31.4932L86.9936 30.3991L93.6299 24.5166L91.9107 21.5126L83.5285 24.3552L82.798 23.4405C81.3906 21.674 79.7872 20.0599 78.0412 18.652L77.1326 17.9167L79.9564 9.46947L76.9634 7.72981L71.1198 14.4194L70.0331 13.998C67.9219 13.164 65.7306 12.5811 63.5304 12.2404L62.3813 12.07L60.6354 3.33584H57.188L55.451 12.07L54.293 12.2404C52.1017 12.5722 49.9103 13.164 47.7992 13.998L46.7124 14.4194L40.86 7.73878L37.867 9.47844L40.6907 17.9256L39.7822 18.6609C38.0273 20.0778 36.4239 21.6919 35.0254 23.4495L34.2949 24.3642L25.9127 21.5215L24.1935 24.5256L30.8298 30.4081L30.4111 31.5021C29.8945 32.8293 29.4669 34.2461 29.1195 35.7168L25.8682 34.9456C26.1532 33.717 26.4917 32.5244 26.8925 31.3855L19.9355 25.225L24.3895 17.4593L33.1726 20.4454C34.2861 19.1452 35.4975 17.9256 36.798 16.7957L33.8317 7.94503L41.5548 3.46138L47.6745 10.4738C49.2957 9.8999 50.9526 9.45154 52.6183 9.13768L54.4444 0H63.3611L65.1783 9.13768C66.8441 9.45154 68.5009 9.8999 70.1222 10.4738L76.2508 3.46138L83.9738 7.94503L81.0075 16.7957C82.2992 17.9167 83.5195 19.1362 84.633 20.4454L93.4161 17.4593L97.87 25.225L90.913 31.3855C91.305 32.5244 91.6524 33.717 91.9374 34.9456L88.7128 35.7078Z" fill="white"/>
<path d="M72.5901 36.0576C70.0692 30.8118 64.7067 27.4221 58.9166 27.4221C53.1265 27.4221 47.764 30.8118 45.2431 36.0576L42.2412 34.596C45.3144 28.2023 51.8616 24.0684 58.9166 24.0684C65.9716 24.0684 72.5099 28.2023 75.592 34.596L72.5901 36.0576Z" fill="white"/>
<path d="M9.67343 46.388V39.0079L3.33105 42.7024L9.67343 46.388Z" fill="white"/>
<path d="M15.1878 51.526L0 42.7022L15.1878 33.8694L16.8536 36.7748L6.67195 42.7022L16.8536 48.6206L15.1878 51.526Z" fill="white"/>
<path d="M23.3477 41.0255H99.8659V44.3793H23.3477V41.0255Z" fill="white"/>
<path d="M99.8561 51.7593L16.0157 51.7503C15.3388 51.7503 14.733 51.3468 14.4747 50.7101C14.2164 50.0824 14.3589 49.365 14.8399 48.8808L20.9863 42.7023L14.8399 36.5149C14.3678 36.0396 14.2253 35.3132 14.4747 34.6855C14.733 34.0578 15.3388 33.6453 16.0157 33.6453H99.8561C100.302 33.6453 100.72 33.8247 101.032 34.1385C101.344 34.4524 101.522 34.8828 101.522 35.3222V50.0734C101.531 51.006 100.774 51.7593 99.8561 51.7593ZM20.0421 48.3965L98.1904 48.4055V37.0081H20.0421L24.5227 41.5186C25.173 42.1732 25.173 43.2403 24.5227 43.895L20.0421 48.3965Z" fill="white"/>
<path d="M99.8562 51.7592C99.4108 51.7592 98.9921 51.5798 98.6804 51.266C98.3686 50.9521 98.1904 50.5217 98.1904 50.0823L98.1993 35.3311C98.1993 34.8917 98.3775 34.4612 98.6893 34.1474C99.001 33.8335 99.4286 33.6542 99.8651 33.6542H107.187C108.105 33.6542 108.853 34.4074 108.853 35.3311V50.0823C108.853 51.0059 108.105 51.7592 107.187 51.7592H99.8562ZM101.531 37.0079V48.4054H105.522V37.0079H101.531Z" fill="white"/>
<path d="M107.197 51.7502H107.179L107.188 48.3964H107.197C108.702 48.3964 110.118 47.8046 111.187 46.7285C112.256 45.6524 112.844 44.2177 112.844 42.7022C112.844 41.1777 112.256 39.743 111.187 38.6759C110.118 37.5998 108.702 37.0079 107.197 37.0079H107.188L107.179 33.6542H107.188C109.584 33.6542 111.837 34.5957 113.539 36.2995C115.24 38.0123 116.167 40.281 116.167 42.7022C116.167 45.1234 115.231 47.3921 113.539 49.1048C111.846 50.8086 109.593 51.7502 107.197 51.7502Z" fill="white"/>
</svg>
