<svg width="96" height="59" viewBox="0 0 96 59" fill="none" xmlns="http://www.w3.org/2000/svg">
<path d="M88.6869 22.4662V33.7103M88.6869 33.7103V38.8213L91.7817 56.1986L89.7185 58.243L86.6237 57.2208L82.4972 38.8213L78.3708 57.2208L75.276 58.243L73.2128 56.1986L76.3076 38.8213V22.4662L70.118 33.7103L67.0232 34.7325L64.96 31.6659L71.1496 19.3996L75.276 15.3108H90.7501L94.8765 19.3996V33.7103L91.7817 35.7547L88.6869 33.7103Z" stroke="white" stroke-width="1.5" stroke-linejoin="bevel"/>
<path d="M43.6901 57.2208L47.9379 38.8213L52.1856 57.2208L55.3715 58.243L57.4954 56.1986L54.3095 38.8213V22.4662L60.6812 33.7103L63.867 34.7325L65.9909 31.6659L59.6193 19.3996L55.3715 15.3108H40.5042L36.2564 19.3996L29.8848 31.6659L32.0087 34.7325L35.1945 33.7103L41.5662 22.4662V38.8213L38.3803 56.1986L40.5042 58.243L43.6901 57.2208Z" stroke="white" stroke-width="1.5" stroke-linejoin="bevel"/>
<path d="M7.19007 22.4662V33.7103M7.19007 33.7103V38.8213L4.09526 56.1986L6.15847 58.243L9.25328 57.2208L13.3797 38.8213L17.5061 57.2208L20.6009 58.243L22.6642 56.1986L19.5693 38.8213V22.4662L25.759 33.7103L28.8538 34.7325L30.917 31.6659L24.7274 19.3996L20.6009 15.3108H5.12686L1.00044 19.3996V33.7103L4.09526 35.7547L7.19007 33.7103Z" stroke="white" stroke-width="1.5" stroke-linejoin="bevel"/>
<ellipse cx="13.3797" cy="6.1111" rx="5.15803" ry="5.11098" stroke="white" stroke-width="1.5"/>
<ellipse cx="47.4227" cy="6.1111" rx="5.15802" ry="5.11098" stroke="white" stroke-width="1.5"/>
<ellipse cx="82.4969" cy="6.1111" rx="5.15803" ry="5.11098" stroke="white" stroke-width="1.5"/>
</svg>
