<svg width="73" height="108" viewBox="0 0 73 108" fill="none" xmlns="http://www.w3.org/2000/svg">
<path d="M0 0V69.5544H13.3393V79.1693H21.7533L14.9811 107.4H26.6786L33.6561 79.3738H38.5813L45.5588 107.4H57.4616L50.4841 79.3738H58.8981V69.5544H72.2374V0H0ZM24.4212 104.332H18.8802L25.0368 79.3738H30.5778L24.4212 104.332ZM53.3572 104.332H47.8162L41.6596 79.3738H47.2006L53.3572 104.332ZM54.7937 75.2824H17.4437V69.5544H54.5885V75.2824H54.7937ZM68.133 65.463H4.1044V4.09143H68.133V65.463Z" fill="white"/>
<path d="M41.454 12.8881C31.3983 12.8881 22.779 20.0481 20.932 29.6629C14.1598 30.8904 9.0293 36.823 9.0293 43.983C9.0293 51.9613 15.5963 58.5076 23.5999 58.5076C27.9095 58.5076 31.8087 56.6664 34.4766 53.5978C36.734 54.4161 38.9914 54.8253 41.454 54.8253C52.9464 54.8253 62.3865 45.415 62.3865 33.959C62.5917 22.2984 53.1516 12.8881 41.454 12.8881ZM24.626 33.3452C29.9617 33.7544 34.0661 38.255 34.0661 43.7784C34.0661 45.415 33.6557 46.847 33.04 48.279C27.9095 45.415 24.626 39.8915 24.626 33.7544V33.3452ZM23.5999 54.2116C17.8538 54.2116 13.1337 49.5064 13.1337 43.7784C13.1337 39.0732 16.212 35.1864 20.5216 33.7544C20.5216 41.3235 24.626 47.8698 30.5774 51.5521C28.7304 53.1887 26.2678 54.2116 23.5999 54.2116ZM41.454 50.5293C39.8123 50.5293 38.3757 50.3247 36.734 49.9155C37.5549 48.0744 38.1705 46.0287 38.1705 43.7784C38.1705 36.2092 32.4244 30.0721 25.0364 29.2538C26.8834 22.0938 33.4505 16.7749 41.2488 16.7749C50.4837 16.7749 58.0768 24.3441 58.0768 33.5498C58.4873 42.9601 50.8941 50.5293 41.454 50.5293Z" fill="white"/>
</svg>
