<svg width="35" height="47" viewBox="0 0 35 47" fill="none" xmlns="http://www.w3.org/2000/svg">
<path d="M14.3917 0C19.629 0 23.8898 4.34479 23.8898 9.68539C23.8898 15.026 19.629 19.3708 14.3917 19.3708C9.15985 19.3708 4.89362 15.026 4.89362 9.68539C4.89907 4.33923 9.15985 0 14.3917 0ZM21.222 40.9C18.8762 40.9 18.8762 37.2562 21.222 37.2562H25.4446V32.9503C25.4446 30.5582 29.018 30.5582 29.018 32.9503V37.2562H33.2406C35.5865 37.2562 35.5865 40.9 33.2406 40.9H29.018V45.2059C29.018 47.598 25.4446 47.598 25.4446 45.2059V40.9H21.222ZM7.56137 21.2455H21.233C25.3846 21.2455 28.7943 24.7225 28.7943 28.956V28.9727H25.2264V28.956C25.2264 26.7197 23.4315 24.8894 21.2384 24.8894H7.56137C5.36279 24.8894 3.57338 26.7141 3.57338 28.956V38.3633H17.0322V42.0071H0V28.9505C0 24.7225 3.40971 21.2455 7.56137 21.2455ZM14.3972 3.63828C11.1293 3.63828 8.47791 6.34196 8.47791 9.67983C8.47791 13.0121 11.1293 15.7214 14.3972 15.7214C17.6705 15.7214 20.3219 13.0177 20.3219 9.67983C20.3219 6.34196 17.665 3.63828 14.3972 3.63828Z" fill="#D700E8"/>
</svg>
