<svg width="36" height="21" viewBox="0 0 36 21" fill="none" xmlns="http://www.w3.org/2000/svg">
<path d="M31.5013 1.44679C31.5013 2.10104 31.0105 2.52492 30.4095 2.52492H1.85649C1.25552 2.52492 0.764648 2.10565 0.764648 1.44679C0.764648 0.787927 1.25552 0.368652 1.85649 0.368652H30.4095C31.0151 0.368652 31.5013 0.787927 31.5013 1.44679Z" fill="white"/>
<path d="M30.3178 5.03127C30.3178 5.68552 29.8269 6.10941 29.2259 6.10941H1.85649C1.25552 6.10941 0.764648 5.69013 0.764648 5.03127C0.764648 4.3724 1.25552 3.95312 1.85649 3.95312H29.2305C29.8315 3.95773 30.3178 4.37701 30.3178 5.03127Z" fill="white"/>
<path d="M35.0475 8.62062C35.0475 9.27487 34.5567 9.69875 33.9557 9.69875H1.85649C1.25552 9.69875 0.764648 9.27948 0.764648 8.62062C0.764648 7.96176 1.25552 7.54248 1.85649 7.54248H33.9557C34.5612 7.54248 35.0475 7.96176 35.0475 8.62062Z" fill="white"/>
<path d="M23.23 12.2051C23.23 12.8593 22.7391 13.2832 22.1381 13.2832H1.85649C1.25552 13.2832 0.764648 12.8639 0.764648 12.2051C0.764648 11.5462 1.25552 11.127 1.85649 11.127H22.1335C22.7391 11.127 23.23 11.5462 23.23 12.2051Z" fill="white"/>
<path d="M32.6849 15.7896C32.6849 16.4438 32.1941 16.8677 31.5931 16.8677H1.85649C1.25552 16.8677 0.764648 16.4484 0.764648 15.7896C0.764648 15.1353 1.25552 14.7114 1.85649 14.7114H31.5931C32.1941 14.716 32.6849 15.1353 32.6849 15.7896Z" fill="white"/>
<path d="M20.8628 19.3789C20.8628 20.0332 20.3719 20.457 19.7709 20.457H1.85649C1.25552 20.457 0.764648 20.0378 0.764648 19.3789C0.764648 18.7247 1.25552 18.3008 1.85649 18.3008H19.7709C20.3719 18.3008 20.8628 18.7247 20.8628 19.3789Z" fill="white"/>
</svg>
