<svg width="136" height="127" viewBox="0 0 136 127" fill="none" xmlns="http://www.w3.org/2000/svg">
<path d="M136 0H0V127H136V0Z" fill="transparent"/>
<path d="M91.4588 70.665C86.8162 70.665 82.4288 68.8352 79.1637 65.5821L71.8682 58.3137L73.3477 56.8397L80.6432 64.1081C83.5001 67.0053 87.3774 68.581 91.4588 68.581C91.4588 68.581 91.4588 68.581 91.5098 68.581C95.5911 68.581 99.4174 67.0053 102.274 64.159C105.182 61.3126 106.764 57.4496 106.764 53.3833C106.764 49.317 105.182 45.5049 102.325 42.6077C99.4684 39.7105 95.5911 38.1348 91.5098 38.1348C91.5098 38.1348 91.5098 38.1348 91.4588 38.1348C87.3774 38.1348 83.5511 39.7105 80.6942 42.5569L57.5835 65.5313C50.7982 72.2407 39.8296 72.2407 33.0443 65.4805C26.3101 58.7203 26.3101 47.7922 33.0953 41.032C36.3604 37.779 40.6969 36 45.3394 36C45.3394 36 45.3394 36 45.3904 36C50.033 36 54.3694 37.8298 57.6345 41.0828L64.7769 48.2497L63.2974 49.7237L56.155 42.6077C53.2981 39.7105 49.4208 38.1348 45.3394 38.1348C45.3394 38.1348 45.3394 38.1348 45.2884 38.1348C41.207 38.1348 37.3808 39.7105 34.5238 42.5569C28.5548 48.5038 28.5548 58.1104 34.4728 64.0573C40.4418 70.0042 50.084 70.0042 56.053 64.1081L79.2147 41.1337C82.4798 37.8807 86.8162 36.1017 91.4588 36.1017C91.4588 36.1017 91.4588 36.1017 91.5098 36.1017C96.1523 36.1017 100.489 37.9315 103.754 41.1845C107.019 44.4375 108.805 48.8088 108.805 53.4342C108.805 58.0595 106.968 62.38 103.703 65.633C100.438 68.886 96.1013 70.665 91.4588 70.665Z" fill="url(#paint0_linear)"/>
<path d="M41.3232 95.1091C44.2039 95.1091 45.8704 93.3226 45.8704 90.368C45.8704 87.4273 44.2039 85.6546 41.4201 85.6546H38.2625V95.1091H41.3232ZM39.689 93.8627V86.901H41.3324C43.4006 86.901 44.467 88.1382 44.467 90.368C44.467 92.607 43.4006 93.8627 41.2447 93.8627H39.689ZM48.5735 95.1091H49.9538V88.0182H48.5735V95.1091ZM49.2706 86.9241C49.7461 86.9241 50.1431 86.5548 50.1431 86.1024C50.1431 85.65 49.7461 85.276 49.2706 85.276C48.7905 85.276 48.3981 85.65 48.3981 86.1024C48.3981 86.5548 48.7905 86.9241 49.2706 86.9241ZM58.1644 89.7494C57.8782 88.6461 57.0149 87.9259 55.4822 87.9259C53.8803 87.9259 52.7446 88.7707 52.7446 90.0264C52.7446 91.0328 53.354 91.7022 54.6836 91.9976L55.8838 92.2608C56.5671 92.4131 56.8856 92.7178 56.8856 93.161C56.8856 93.7103 56.2993 94.1397 55.3945 94.1397C54.5682 94.1397 54.0373 93.7842 53.8711 93.0871L52.5369 93.2902C52.7677 94.5459 53.811 95.2522 55.4037 95.2522C57.1164 95.2522 58.3029 94.3428 58.3029 93.0594C58.3029 92.0576 57.6658 91.439 56.364 91.139L55.2375 90.8804C54.4574 90.6958 54.1204 90.4326 54.125 89.9525C54.1204 89.4078 54.7113 89.02 55.4961 89.02C56.3547 89.02 56.7517 89.4955 56.9133 89.971L58.1644 89.7494ZM63.8474 95.2522C65.5232 95.2522 66.6081 94.2458 66.7604 92.8655H65.417C65.2416 93.6319 64.6461 94.0843 63.8566 94.0843C62.6887 94.0843 61.9362 93.1102 61.9362 91.5637C61.9362 90.0449 62.7025 89.0892 63.8566 89.0892C64.7338 89.0892 65.2693 89.6432 65.417 90.308H66.7604C66.6127 88.8769 65.4447 87.9259 63.8336 87.9259C61.8346 87.9259 60.542 89.4309 60.542 91.596C60.542 93.7334 61.7885 95.2522 63.8474 95.2522ZM72.2634 95.2522C74.2623 95.2522 75.5688 93.7888 75.5688 91.596C75.5688 89.3893 74.2623 87.9259 72.2634 87.9259C70.2645 87.9259 68.958 89.3893 68.958 91.596C68.958 93.7888 70.2645 95.2522 72.2634 95.2522ZM72.268 94.0935C70.9615 94.0935 70.3522 92.9532 70.3522 91.5914C70.3522 90.2341 70.9615 89.08 72.268 89.08C73.5652 89.08 74.1746 90.2341 74.1746 91.5914C74.1746 92.9532 73.5652 94.0935 72.268 94.0935ZM83.9617 88.0182H82.4798L80.6886 93.4749H80.6147L78.8189 88.0182H77.337L79.913 95.1091H81.3903L83.9617 88.0182ZM89.1011 95.2522C90.6476 95.2522 91.7417 94.4905 92.0557 93.3364L90.7492 93.101C90.4999 93.7704 89.8998 94.112 89.115 94.112C87.9331 94.112 87.1391 93.3456 87.1022 91.9792H92.1434V91.4898C92.1434 88.9277 90.6107 87.9259 89.0042 87.9259C87.0283 87.9259 85.7265 89.4309 85.7265 91.6098C85.7265 93.8119 87.0098 95.2522 89.1011 95.2522ZM87.1068 90.9451C87.1622 89.9387 87.8916 89.0662 89.0134 89.0662C90.0844 89.0662 90.7861 89.8602 90.7907 90.9451H87.1068ZM94.7149 95.1091H96.0952V90.7789C96.0952 89.851 96.8108 89.1816 97.7895 89.1816C98.0757 89.1816 98.3988 89.2324 98.5096 89.2647V87.9444C98.3711 87.9259 98.0988 87.912 97.9233 87.912C97.0924 87.912 96.3814 88.3829 96.1229 89.1446H96.049V88.0182H94.7149V95.1091Z" fill="url(#paint1_linear)"/>
<defs>
<linearGradient id="paint0_linear" x1="27.9926" y1="53.3444" x2="108.806" y2="53.3444" gradientUnits="userSpaceOnUse">
<stop offset="0.0101669" stop-color="#FF00A5"/>
<stop offset="1" stop-color="#CD00DE"/>
</linearGradient>
<linearGradient id="paint1_linear" x1="36.9973" y1="90.1092" x2="98.9982" y2="90.1092" gradientUnits="userSpaceOnUse">
<stop stop-color="#FF00A6"/>
<stop offset="1" stop-color="#CE00DF"/>
</linearGradient>
</defs>
</svg>
