<svg width="137" height="127" viewBox="0 0 137 127" fill="none" xmlns="http://www.w3.org/2000/svg">
<path d="M137 0H0V127H137V0Z" fill="url(#paint0_linear)"/>
<path d="M92.1314 70.665C87.4548 70.665 83.035 68.8352 79.7459 65.5821L72.3969 58.3137L73.8872 56.8397L81.2363 64.1081C84.1143 67.0053 88.0201 68.581 92.1314 68.581C92.1314 68.581 92.1314 68.581 92.1828 68.581C96.2942 68.581 100.149 67.0053 103.027 64.159C105.956 61.3126 107.549 57.4496 107.549 53.3833C107.549 49.317 105.956 45.5049 103.078 42.6077C100.2 39.7105 96.2942 38.1348 92.1828 38.1348C92.1828 38.1348 92.1828 38.1348 92.1314 38.1348C88.0201 38.1348 84.1656 39.7105 81.2877 42.5569L58.0071 65.5313C51.1719 72.2407 40.1226 72.2407 33.2875 65.4805C26.5037 58.7203 26.5037 47.7922 33.3389 41.032C36.6279 37.779 40.9963 36 45.673 36C45.673 36 45.673 36 45.7244 36C50.4011 36 54.7694 37.8298 58.0585 41.0828L65.2534 48.2497L63.763 49.7237L56.5681 42.6077C53.6901 39.7105 49.7843 38.1348 45.673 38.1348C45.673 38.1348 45.673 38.1348 45.6216 38.1348C41.5102 38.1348 37.6558 39.7105 34.7778 42.5569C28.765 48.5038 28.765 58.1104 34.7264 64.0573C40.7393 70.0042 50.4524 70.0042 56.4653 64.1081L79.7973 41.1337C83.0864 37.8807 87.4548 36.1017 92.1314 36.1017C92.1314 36.1017 92.1314 36.1017 92.1828 36.1017C96.8595 36.1017 101.228 37.9315 104.517 41.1845C107.806 44.4375 109.605 48.8088 109.605 53.4342C109.605 58.0595 107.755 62.38 104.466 65.633C101.176 68.886 96.8081 70.665 92.1314 70.665Z" fill="white"/>
<path d="M41.8236 95.1091C44.7043 95.1091 46.3708 93.3226 46.3708 90.368C46.3708 87.4273 44.7043 85.6546 41.9205 85.6546H38.7629V95.1091H41.8236ZM40.1894 93.8627V86.901H41.8328C43.901 86.901 44.9674 88.1382 44.9674 90.368C44.9674 92.607 43.901 93.8627 41.7451 93.8627H40.1894ZM49.0739 95.1091H50.4542V88.0182H49.0739V95.1091ZM49.771 86.9241C50.2465 86.9241 50.6435 86.5548 50.6435 86.1024C50.6435 85.65 50.2465 85.276 49.771 85.276C49.2909 85.276 48.8985 85.65 48.8985 86.1024C48.8985 86.5548 49.2909 86.9241 49.771 86.9241ZM58.6648 89.7494C58.3786 88.6461 57.5153 87.9259 55.9826 87.9259C54.3807 87.9259 53.245 88.7707 53.245 90.0264C53.245 91.0328 53.8544 91.7022 55.184 91.9976L56.3842 92.2608C57.0675 92.4131 57.386 92.7178 57.386 93.161C57.386 93.7103 56.7997 94.1397 55.8949 94.1397C55.0686 94.1397 54.5377 93.7842 54.3715 93.0871L53.0373 93.2902C53.2681 94.5459 54.3115 95.2522 55.9041 95.2522C57.6168 95.2522 58.8033 94.3428 58.8033 93.0594C58.8033 92.0576 58.1662 91.439 56.8644 91.139L55.7379 90.8804C54.9578 90.6958 54.6208 90.4326 54.6254 89.9525C54.6208 89.4078 55.2117 89.02 55.9965 89.02C56.8551 89.02 57.2521 89.4955 57.4137 89.971L58.6648 89.7494ZM64.3478 95.2522C66.0236 95.2522 67.1085 94.2458 67.2608 92.8655H65.9174C65.742 93.6319 65.1465 94.0843 64.357 94.0843C63.1891 94.0843 62.4366 93.1102 62.4366 91.5637C62.4366 90.0449 63.2029 89.0892 64.357 89.0892C65.2342 89.0892 65.7697 89.6432 65.9174 90.308H67.2608C67.1131 88.8769 65.9451 87.9259 64.334 87.9259C62.335 87.9259 61.0424 89.4309 61.0424 91.596C61.0424 93.7334 62.2889 95.2522 64.3478 95.2522ZM72.7638 95.2522C74.7627 95.2522 76.0692 93.7888 76.0692 91.596C76.0692 89.3893 74.7627 87.9259 72.7638 87.9259C70.7649 87.9259 69.4584 89.3893 69.4584 91.596C69.4584 93.7888 70.7649 95.2522 72.7638 95.2522ZM72.7684 94.0935C71.4619 94.0935 70.8526 92.9532 70.8526 91.5914C70.8526 90.2341 71.4619 89.08 72.7684 89.08C74.0656 89.08 74.675 90.2341 74.675 91.5914C74.675 92.9532 74.0656 94.0935 72.7684 94.0935ZM84.4621 88.0182H82.9802L81.189 93.4749H81.1151L79.3193 88.0182H77.8374L80.4134 95.1091H81.8907L84.4621 88.0182ZM89.6015 95.2522C91.148 95.2522 92.2421 94.4905 92.5561 93.3364L91.2496 93.101C91.0003 93.7704 90.4002 94.112 89.6154 94.112C88.4335 94.112 87.6395 93.3456 87.6026 91.9792H92.6438V91.4898C92.6438 88.9277 91.1111 87.9259 89.5046 87.9259C87.5287 87.9259 86.2269 89.4309 86.2269 91.6098C86.2269 93.8119 87.5102 95.2522 89.6015 95.2522ZM87.6072 90.9451C87.6626 89.9387 88.392 89.0662 89.5138 89.0662C90.5848 89.0662 91.2865 89.8602 91.2911 90.9451H87.6072ZM95.2153 95.1091H96.5956V90.7789C96.5956 89.851 97.3112 89.1816 98.2899 89.1816C98.5761 89.1816 98.8992 89.2324 99.01 89.2647V87.9444C98.8715 87.9259 98.5992 87.912 98.4237 87.912C97.5928 87.912 96.8818 88.3829 96.6233 89.1446H96.5494V88.0182H95.2153V95.1091Z" fill="white"/>
<defs>
<linearGradient id="paint0_linear" x1="-0.0060409" y1="63.501" x2="136.996" y2="63.501" gradientUnits="userSpaceOnUse">
<stop stop-color="#FF00A6"/>
<stop offset="1" stop-color="#CE00DF"/>
</linearGradient>
</defs>
</svg>
