<svg viewBox="0 0 36 35" fill="none" xmlns="http://www.w3.org/2000/svg">
<path d="M14.9333 26.6881L10.8337 30.6738C9.13074 32.3294 6.37975 32.3294 4.68447 30.6738C2.98918 29.0256 2.98918 26.3435 4.68447 24.6953L12.8835 16.724C14.5788 15.0758 17.3375 15.0758 19.0328 16.724C19.5953 17.2709 20.52 17.2709 21.0825 16.724C21.6451 16.1771 21.6451 15.2781 21.0825 14.7312C18.2545 11.9817 13.6618 11.9817 10.8337 14.7312L2.63471 22.7025C-0.19334 25.452 -0.19334 29.9171 2.63471 32.6666C5.46276 35.4161 10.0554 35.4161 12.8835 32.6666L16.983 28.6809C17.5455 28.134 17.5455 27.235 16.983 26.6881C16.4205 26.1412 15.4958 26.1412 14.9333 26.6881Z" fill="white"/>
<path d="M33.1729 2.97661C30.3448 0.227117 25.7521 0.227117 22.9241 2.97661L18.0077 7.75638C17.4452 8.30328 17.4452 9.2023 18.0077 9.7492C18.5703 10.2961 19.495 10.2961 20.0575 9.7492L24.9738 4.96943C26.6691 3.32123 29.4278 3.32123 31.1231 4.96943C32.8184 6.61763 32.8184 9.29969 31.1231 10.9479L22.1073 19.7133C20.412 21.3615 17.6533 21.3615 15.958 19.7133C15.3955 19.1664 14.4708 19.1664 13.9082 19.7133C13.3457 20.2602 13.3457 21.1592 13.9082 21.7061C16.7363 24.4556 21.329 24.4556 24.157 21.7061L33.1729 12.9407C36.0009 10.1912 36.0009 5.7261 33.1729 2.97661Z" fill="white"/>
</svg>
