<svg width="35" height="18" viewBox="0 0 35 18" fill="none" xmlns="http://www.w3.org/2000/svg">
<path d="M25.9717 18C30.4131 18 34.0217 13.9767 34.0217 9C34.0217 4.02326 30.4131 3.37487e-07 25.9717 7.52856e-07C21.5303 1.16823e-06 17.9216 4.02326 17.9216 9C17.9216 13.9767 21.5303 18 25.9717 18ZM25.9076 4.04651C28.1924 4.04651 30.0501 6.23256 30.0501 8.93023C30.0501 11.6279 28.1924 13.814 25.9076 13.814C23.6229 13.814 21.7652 11.6279 21.7652 8.93024C21.7438 6.23256 23.6229 4.04651 25.9076 4.04651ZM8.4196 18C12.861 18 16.4696 13.9767 16.4696 9C16.4696 4.02326 12.861 1.97899e-06 8.4196 2.39436e-06C3.97819 2.80973e-06 0.369555 4.02326 0.369556 9.00001C0.369556 13.9767 3.9782 18 8.4196 18ZM8.33419 4.04652C10.6189 4.04651 12.4766 6.23256 12.4766 8.93024C12.4766 11.6279 10.6189 13.814 8.33419 13.814C6.04943 13.814 4.19173 11.6279 4.19173 8.93024C4.19173 6.23256 6.04943 4.04652 8.33419 4.04652Z" fill="#FF00A6"/>
</svg>
