<svg width="146" height="35" viewBox="0 0 146 35" fill="none" xmlns="http://www.w3.org/2000/svg">
<path d="M7.78433 11.1349C6.48164 11.786 5.27664 12.4372 3.45286 12.3395C2.28043 12.2419 1.17314 11.493 0.912596 11.3953L0.749759 11.2977C0.619489 11.2 0.489219 11.1674 0.326382 11.2326C0.130977 11.2977 0.000707127 11.4605 -0.0318604 11.6233V35H6.15596V19.7302C6.77474 17.5163 8.69622 15.9209 10.9108 15.7907C13.3859 15.6279 15.6982 17.3209 16.3496 19.8605V35H22.4723V19.1116C22.1466 14.3581 19.8343 12.014 16.1867 10.5163C14.9166 10.1256 13.6139 9.93023 12.3112 9.89767C10.292 9.93023 8.98933 10.5488 7.78433 11.1349ZM48.0377 11.1349C46.735 11.786 45.53 12.4372 43.7063 12.3395C42.5338 12.2419 41.4265 11.493 41.166 11.3953L41.0032 11.2977C40.8729 11.2 40.7426 11.1674 40.5798 11.2326C40.3844 11.2977 40.2541 11.4605 40.2541 11.6233V35H46.4419V19.7302C47.0607 17.5163 48.9822 15.9209 51.1968 15.7907C53.6719 15.6279 55.9842 17.3209 56.6356 19.8605V35H62.7582V19.1116C62.4 14.3256 60.0877 12.014 56.4401 10.5163C55.17 10.1256 53.8673 9.93023 52.5646 9.89767C50.5454 9.93023 49.2427 10.5163 48.0377 11.1349ZM28.1064 3.45116C28.1064 5.33954 29.6697 6.86977 31.5586 6.86977C33.4475 6.86977 34.9782 5.30698 34.9782 3.4186C34.9782 1.53023 33.4475 0 31.5586 0C29.6371 0 28.1064 1.56279 28.1064 3.45116ZM28.2041 10.2558V35H34.4245V10.2558H28.2041ZM106.952 9.76744C100.178 9.76744 94.6744 15.4 94.6744 22.3674C94.6744 29.3349 100.178 34.9674 106.952 34.9674C113.726 34.9674 119.23 29.3349 119.23 22.3674C119.23 15.4 113.726 9.76744 106.952 9.76744ZM107.05 29.3023C103.565 29.3023 100.732 26.2419 100.732 22.4651C100.732 18.6884 103.565 15.6279 107.05 15.6279C110.535 15.6279 113.368 18.6884 113.368 22.4651C113.401 26.2419 110.535 29.3023 107.05 29.3023ZM133.723 9.76744C126.949 9.76744 121.445 15.4 121.445 22.3674C121.445 29.3349 126.949 34.9674 133.723 34.9674C140.497 34.9674 146.001 29.3349 146.001 22.3674C146.001 15.4 140.497 9.76744 133.723 9.76744ZM133.853 29.3023C130.368 29.3023 127.535 26.2419 127.535 22.4651C127.535 18.6884 130.368 15.6279 133.853 15.6279C137.338 15.6279 140.171 18.6884 140.171 22.4651C140.171 26.2419 137.338 29.3023 133.853 29.3023ZM85.2298 0.911628V12.1442C83.3409 10.6791 81.0612 9.89767 78.6837 9.89767C72.3331 9.89767 67.22 15.5302 67.22 22.4651C67.22 29.4 72.3656 35.0326 78.6837 35.0326C81.3217 35.0326 83.862 34.0558 85.816 32.2977L86.8907 34.8047H91.1896V0.911628H85.2298ZM79.4979 29.0419C76.0458 29.0419 73.245 26.014 73.245 22.3023C73.245 18.5581 76.0458 15.5628 79.4979 15.5628C82.9501 15.5628 85.7509 18.5907 85.7509 22.3023C85.7183 26.014 82.9175 29.0419 79.4979 29.0419Z" fill="url(#paint0_linear)"/>
<defs>
<linearGradient id="paint0_linear" x1="0.000707125" y1="17.4929" x2="146.01" y2="17.4929" gradientUnits="userSpaceOnUse">
<stop offset="4.79501e-07" stop-color="#F405B1"/>
<stop offset="0.2251" stop-color="#EB09B6"/>
<stop offset="0.5957" stop-color="#D215C3"/>
<stop offset="0.9955" stop-color="#B025D4"/>
</linearGradient>
</defs>
</svg>
