<svg width="42" height="42" viewBox="0 0 42 42" fill="none" xmlns="http://www.w3.org/2000/svg">
<path d="M41.4278 38.3639L33.5896 30.6068C39.5376 23.1961 38.9769 12.2993 32.1908 5.52343C28.6243 1.95658 23.9364 0 18.896 0C13.8555 0 9.09827 1.95658 5.52601 5.51766C1.95954 9.08451 0 13.7653 0 18.8674C0 23.9695 1.95954 28.6503 5.52601 32.2171C9.09827 35.709 13.7861 37.7348 18.896 37.7348C23.1676 37.7348 27.3642 36.2688 30.6532 33.6139L38.422 41.3709C38.8439 41.7922 39.3295 42 39.8902 42C40.4509 42 41.0116 41.7922 41.3584 41.3709C42.2023 40.5282 42.2023 39.2008 41.4278 38.3639ZM33.5896 18.8674C33.5896 22.7805 32.052 26.4801 29.2486 29.2101C26.4509 31.9343 22.8093 33.5446 18.8902 33.5446C14.9711 33.5446 11.2659 32.0093 8.53179 29.2101C5.80347 26.4167 4.19075 22.7805 4.19075 18.8674C4.19075 14.9542 5.72833 11.2546 8.53179 8.52467C11.3295 5.80047 14.9017 4.19019 18.8902 4.19019C22.8093 4.19019 26.5145 5.72544 29.2486 8.52467C31.9827 11.3181 33.5896 14.885 33.5896 18.8674Z" fill="#9B9BBC"/>
</svg>
